<?xml version="1.0" encoding="UTF-8" standalone="no"?>
<svg
   version="1.1"
   width="0.106667in"
   height="0.106667in"
   viewBox="0 0 32 32"
   id="svg1"
   sodipodi:docname="32x32.svg"
   inkscape:version="1.4.2 (f4327f4, 2025-05-13)"
   inkscape:export-filename="StoreLogo.png"
   inkscape:export-xdpi="468.74857"
   inkscape:export-ydpi="468.74857"
   xmlns:inkscape="http://www.inkscape.org/namespaces/inkscape"
   xmlns:sodipodi="http://sodipodi.sourceforge.net/DTD/sodipodi-0.dtd"
   xmlns="http://www.w3.org/2000/svg"
   xmlns:svg="http://www.w3.org/2000/svg">
  <defs
     id="defs1" />
  <sodipodi:namedview
     id="namedview1"
     pagecolor="#505050"
     bordercolor="#eeeeee"
     borderopacity="1"
     inkscape:showpageshadow="0"
     inkscape:pageopacity="0"
     inkscape:pagecheckerboard="0"
     inkscape:deskcolor="#505050"
     inkscape:document-units="in"
     inkscape:zoom="145.01908"
     inkscape:cx="5.1131203"
     inkscape:cy="4.730412"
     inkscape:window-width="2833"
     inkscape:window-height="1711"
     inkscape:window-x="38"
     inkscape:window-y="38"
     inkscape:window-maximized="0"
     inkscape:current-layer="svg1">
    <inkscape:page
       x="0"
       y="0"
       width="31.999998"
       height="31.999998"
       id="page2"
       margin="0"
       bleed="0" />
  </sodipodi:namedview>
  <path
     id="path7"
     fill="none"
     stroke="#000000"
     stroke-width="1"
     d="m 30.44,10.7 c -1.71,-2.89 -9.15,-4.78 -7.95,0.48 1.8,4.38 3.85,8.67 5.64,13.07 0.32,1.1 2.94,6.27 1.58,4.5 C 24.3,21.67 18.89,14.58 13.49,7.49 c 2.14,-2.07 4.29,-4.14 6.44,-6.22 5.2,0.53 7.63,5.82 10.51,9.43 z"
     inkscape:label="axe-inverted2"
     inkscape:highlight-color="#ff6f6f"
     style="stroke-width:0.68749784;stroke-dasharray:none;stroke-dashoffset:0;stroke:#928541;stroke-opacity:1" />
  <path
     id="path6"
     fill="none"
     stroke="#000000"
     stroke-width="1"
     d="M 3.04,10.7 C 3.47,9.97 4.26,9.31 5.19,8.8 7.95,7.31 11.88,7.25 10.99,11.19 9.19,15.57 7.14,19.85 5.35,24.25 5.03,25.35 2.41,30.52 3.77,28.76 9.17,21.67 14.58,14.58 19.99,7.49 17.84,5.42 15.69,3.35 13.55,1.27 8.35,1.81 5.92,7.1 3.04,10.7 Z"
     inkscape:label="axe2"
     sodipodi:nodetypes="cscccccc"
     style="stroke-width:0.62499803;stroke-dasharray:none;stroke-linecap:round;stroke-dashoffset:0;stroke-miterlimit:4;stroke:#928541;stroke-opacity:1" />
  <g
     id="g1">
    <path
       id="Naamloos"
       fill="none"
       stroke="#000000"
       stroke-width="1"
       d="M 3.04,10.7 C 3.47,9.97 4.26,9.31 5.19,8.8 7.95,7.31 11.88,7.25 10.99,11.19 9.19,15.57 7.14,19.85 5.35,24.25 5.03,25.35 2.41,30.52 3.77,28.76 9.17,21.67 14.58,14.58 19.99,7.49 17.84,5.42 15.69,3.35 13.55,1.27 8.35,1.81 5.92,7.1 3.04,10.7 Z"
       inkscape:label="axe"
       sodipodi:nodetypes="cscccccc"
       style="stroke-width:0.31249902;stroke-dasharray:7.49997639, 7.49997639;stroke-linecap:round;stroke-dashoffset:0;fill:#dc322f" />
    <path
       id="path1"
       fill="none"
       stroke="#000000"
       stroke-width="1"
       d="m 30.44,10.7 c -1.71,-2.89 -9.15,-4.78 -7.95,0.48 1.8,4.38 3.85,8.67 5.64,13.07 0.32,1.1 2.94,6.27 1.58,4.5 C 24.3,21.67 18.89,14.58 13.49,7.49 c 2.14,-2.07 4.29,-4.14 6.44,-6.22 5.2,0.53 7.63,5.82 10.51,9.43 z"
       inkscape:label="axe-inverted"
       inkscape:highlight-color="#ff6f6f"
       style="stroke-width:0.37499882;stroke-dasharray:8.99997139, 8.99997139;stroke-dashoffset:0;fill:#dc322f" />
    <path
       style="fill:#3366cc;fill-opacity:1;stroke-width:0.00689564"
       d="M 8.13,7.13 C 7.21,5.92 6.88,5.49 6.02,4.36 L 5.56,3.76 5.87,3.36 C 6.04,3.13 6.28,2.82 6.4,2.67 L 6.62,2.38 6.55,2.31 C 6.51,2.28 6.28,2.06 6.03,1.82 L 5.59,1.39 6.01,0.99 6.44,0.58 l 0.06,0.01 C 6.82,0.64 7.16,0.77 7.46,0.97 7.78,1.19 8.1,1.5 8.44,1.93 8.59,2.11 8.91,2.55 8.9,2.56 8.9,2.56 8.86,2.55 8.82,2.53 8.52,2.41 8.24,2.35 7.97,2.35 c -0.33,0 -0.57,0.08 -0.75,0.26 C 7.16,2.68 7.12,2.74 7.08,2.83 6.99,3.01 6.97,3.26 7.02,3.55 c 0.01,0.06 0.03,0.11 0.09,0.27 0.18,0.42 0.41,0.96 0.82,1.9 0.5,1.14 0.84,1.93 0.94,2.19 0.02,0.04 0.06,0.16 0.1,0.25 0.04,0.1 0.07,0.18 0.07,0.18 -0,0 -0.42,-0.54 -0.92,-1.2 z"
       id="path3"
       transform="scale(3.1249902)" />
    <path
       style="fill:#3366cc;fill-opacity:1;stroke-width:0.207;stroke-dasharray:none"
       d="m 1.68,8.3 c 0,-0 0.03,-0.07 0.06,-0.15 0.03,-0.08 0.08,-0.2 0.11,-0.26 C 1.94,7.65 2.21,7.01 2.46,6.43 2.52,6.29 2.69,5.91 2.83,5.58 3.36,4.4 3.63,3.76 3.67,3.64 3.72,3.49 3.73,3.21 3.71,3.05 3.68,2.88 3.61,2.75 3.5,2.63 3.38,2.5 3.23,2.42 3.02,2.38 2.93,2.36 2.67,2.35 2.55,2.36 c -0.2,0.02 -0.42,0.08 -0.62,0.15 -0.05,0.02 -0.09,0.03 -0.1,0.03 -0.01,0 -0,-0.01 0.07,-0.11 C 2.06,2.21 2.33,1.86 2.49,1.68 3.03,1.06 3.54,0.73 4.14,0.61 4.21,0.59 4.26,0.58 4.27,0.58 c 0.01,0 0.03,0.02 0.06,0.05 C 4.47,0.77 4.82,1.11 5.04,1.32 l 0.07,0.07 -0.09,0.09 C 4.98,1.53 4.89,1.61 4.84,1.66 4.79,1.71 4.66,1.83 4.55,1.93 4.45,2.03 4.32,2.16 4.28,2.2 4.23,2.25 4.16,2.31 4.14,2.33 l -0.05,0.04 0.03,0.03 c 0.04,0.05 0.76,0.99 0.9,1.18 L 5.14,3.76 5.13,3.78 C 5.1,3.82 4.71,4.33 4.43,4.69 4.28,4.89 3.78,5.55 3.32,6.16 2.85,6.76 2.36,7.42 2.21,7.61 1.64,8.35 1.68,8.31 1.68,8.3 Z"
       id="path4"
       sodipodi:nodetypes="sssssssssssscssscscssssscsscsssss"
       transform="scale(3.1249902)" />
    <path
       style="fill:#ff9900;fill-opacity:1;stroke-width:95.99999922;stroke-dasharray:none;paint-order:markers fill stroke"
       d="M 4.95,2.95 C 4.72,2.66 4.54,2.42 4.54,2.41 c -0,-0.01 0.81,-0.79 0.82,-0.79 0.01,0 0.71,0.68 0.79,0.76 l 0.03,0.03 -0.41,0.54 C 5.54,3.24 5.36,3.49 5.36,3.49 5.35,3.49 5.17,3.25 4.95,2.95 Z"
       id="path5"
       transform="scale(3.1249902)"
       inkscape:label="path5" />
  </g>
</svg>
